<svg width="3498" height="512" viewBox="0 0 3498 512" fill="none" xmlns="http://www.w3.org/2000/svg">
<g clip-path="url(#clip0_1_2)">
<path d="M660.336 350V187.76H694.344V214.592H695.904C697.568 210.432 699.544 206.48 701.832 202.736C704.328 198.992 707.24 195.768 710.568 193.064C714.104 190.152 718.16 187.968 722.736 186.512C727.52 184.848 733.032 184.016 739.272 184.016C750.296 184.016 760.072 186.72 768.6 192.128C777.128 197.536 783.368 205.856 787.32 217.088H788.256C791.168 207.936 796.784 200.136 805.104 193.688C813.424 187.24 824.136 184.016 837.24 184.016C853.464 184.016 866.048 189.528 874.992 200.552C883.936 211.368 888.408 226.864 888.408 247.04V350H854.4V251.096C854.4 238.616 852.008 229.256 847.224 223.016C842.44 216.568 834.848 213.344 824.448 213.344C820.08 213.344 815.92 213.968 811.968 215.216C808.016 216.256 804.48 217.92 801.36 220.208C798.448 222.496 796.056 225.408 794.184 228.944C792.312 232.48 791.376 236.536 791.376 241.112V350H757.368V251.096C757.368 225.928 747.488 213.344 727.728 213.344C723.568 213.344 719.408 213.968 715.248 215.216C711.296 216.256 707.76 217.92 704.64 220.208C701.52 222.496 699.024 225.408 697.152 228.944C695.28 232.48 694.344 236.536 694.344 241.112V350H660.336ZM1054.34 350C1045.4 350 1038.53 347.504 1033.75 342.512C1028.96 337.312 1026.05 330.76 1025.01 322.856H1023.45C1020.33 333.048 1014.61 340.744 1006.29 345.944C997.973 351.144 987.885 353.744 976.029 353.744C959.181 353.744 946.181 349.376 937.029 340.64C928.085 331.904 923.613 320.152 923.613 305.384C923.613 289.16 929.437 276.992 941.085 268.88C952.941 260.768 970.205 256.712 992.877 256.712H1022.2V242.984C1022.2 233 1019.5 225.304 1014.09 219.896C1008.68 214.488 1000.26 211.784 988.821 211.784C979.253 211.784 971.453 213.864 965.421 218.024C959.389 222.184 954.293 227.488 950.133 233.936L929.853 215.528C935.261 206.376 942.853 198.888 952.629 193.064C962.405 187.032 975.197 184.016 991.005 184.016C1012.01 184.016 1028.13 188.904 1039.36 198.68C1050.6 208.456 1056.21 222.496 1056.21 240.8V322.232H1073.37V350H1054.34ZM985.701 327.848C996.309 327.848 1005.04 325.56 1011.91 320.984C1018.77 316.2 1022.2 309.856 1022.2 301.952V278.552H993.501C969.997 278.552 958.245 285.832 958.245 300.392V306.008C958.245 313.288 960.637 318.8 965.421 322.544C970.413 326.08 977.173 327.848 985.701 327.848ZM1106.7 350V187.76H1140.71V214.592H1142.27C1145.81 205.856 1151.11 198.576 1158.18 192.752C1165.46 186.928 1175.34 184.016 1187.82 184.016C1204.46 184.016 1217.36 189.528 1226.51 200.552C1235.87 211.368 1240.55 226.864 1240.55 247.04V350H1206.54V251.408C1206.54 226.032 1196.35 213.344 1175.97 213.344C1171.6 213.344 1167.23 213.968 1162.86 215.216C1158.7 216.256 1154.96 217.92 1151.63 220.208C1148.3 222.496 1145.6 225.408 1143.52 228.944C1141.65 232.48 1140.71 236.64 1140.71 241.424V350H1106.7ZM1332.62 350C1320.76 350 1311.82 346.984 1305.78 340.952C1299.75 334.712 1296.74 325.976 1296.74 314.744V215.528H1271.46V187.76H1285.19C1290.81 187.76 1294.66 186.512 1296.74 184.016C1299.02 181.52 1300.17 177.464 1300.17 171.848V143.456H1330.74V187.76H1364.75V215.528H1330.74V322.232H1362.26V350H1332.62ZM1418.8 158.744C1411.73 158.744 1406.53 157.08 1403.2 153.752C1400.08 150.424 1398.52 146.16 1398.52 140.96V135.656C1398.52 130.456 1400.08 126.192 1403.2 122.864C1406.53 119.536 1411.73 117.872 1418.8 117.872C1425.87 117.872 1430.97 119.536 1434.09 122.864C1437.21 126.192 1438.77 130.456 1438.77 135.656V140.96C1438.77 146.16 1437.21 150.424 1434.09 153.752C1430.97 157.08 1425.87 158.744 1418.8 158.744ZM1401.64 187.76H1435.65V350H1401.64V187.76ZM1484.21 350V187.76H1518.22V214.592H1519.78C1523.32 205.856 1528.62 198.576 1535.69 192.752C1542.97 186.928 1552.85 184.016 1565.33 184.016C1581.97 184.016 1594.87 189.528 1604.02 200.552C1613.38 211.368 1618.06 226.864 1618.06 247.04V350H1584.05V251.408C1584.05 226.032 1573.86 213.344 1553.48 213.344C1549.11 213.344 1544.74 213.968 1540.37 215.216C1536.21 216.256 1532.47 217.92 1529.14 220.208C1525.81 222.496 1523.11 225.408 1521.03 228.944C1519.16 232.48 1518.22 236.64 1518.22 241.424V350H1484.21ZM1728.84 353.744C1717.2 353.744 1706.8 351.768 1697.64 347.816C1688.49 343.864 1680.69 338.248 1674.24 330.968C1667.8 323.48 1662.8 314.536 1659.27 304.136C1655.94 293.528 1654.28 281.776 1654.28 268.88C1654.28 255.984 1655.94 244.336 1659.27 233.936C1662.8 223.328 1667.8 214.384 1674.24 207.104C1680.69 199.616 1688.49 193.896 1697.64 189.944C1706.8 185.992 1717.2 184.016 1728.84 184.016C1740.7 184.016 1751.1 186.096 1760.04 190.256C1769.2 194.416 1776.79 200.24 1782.82 207.728C1788.85 215.008 1793.32 223.536 1796.24 233.312C1799.36 243.088 1800.92 253.592 1800.92 264.824V277.616H1689.53V282.92C1689.53 295.4 1693.17 305.696 1700.45 313.808C1707.94 321.712 1718.55 325.664 1732.28 325.664C1742.26 325.664 1750.68 323.48 1757.55 319.112C1764.41 314.744 1770.24 308.816 1775.02 301.328L1794.99 320.984C1788.96 330.968 1780.22 338.976 1768.78 345.008C1757.34 350.832 1744.03 353.744 1728.84 353.744ZM1728.84 210.536C1723.02 210.536 1717.61 211.576 1712.62 213.656C1707.84 215.736 1703.68 218.648 1700.14 222.392C1696.81 226.136 1694.21 230.608 1692.34 235.808C1690.47 241.008 1689.53 246.728 1689.53 252.968V255.152H1765.04V252.032C1765.04 239.552 1761.81 229.568 1755.36 222.08C1748.92 214.384 1740.08 210.536 1728.84 210.536ZM1836.62 272.312V237.68H1923.04V272.312H1836.62ZM1966.84 119.12H2000.84V214.592H2002.4C2005.94 204.816 2011.66 197.328 2019.56 192.128C2027.68 186.72 2037.14 184.016 2047.96 184.016C2068.55 184.016 2084.46 191.504 2095.69 206.48C2106.92 221.248 2112.54 242.048 2112.54 268.88C2112.54 295.712 2106.92 316.616 2095.69 331.592C2084.46 346.36 2068.55 353.744 2047.96 353.744C2037.14 353.744 2027.68 351.04 2019.56 345.632C2011.66 340.224 2005.94 332.736 2002.4 323.168H2000.84V350H1966.84V119.12ZM2037.66 324.416C2049.52 324.416 2058.98 320.672 2066.05 313.184C2073.12 305.488 2076.66 295.4 2076.66 282.92V254.84C2076.66 242.36 2073.12 232.376 2066.05 224.888C2058.98 217.192 2049.52 213.344 2037.66 213.344C2027.26 213.344 2018.52 215.944 2011.45 221.144C2004.38 226.136 2000.84 232.792 2000.84 241.112V296.648C2000.84 304.968 2004.38 311.728 2011.45 316.928C2018.52 321.92 2027.26 324.416 2037.66 324.416ZM2215.12 353.744C2203.89 353.744 2193.6 351.768 2184.24 347.816C2175.08 343.864 2167.28 338.248 2160.84 330.968C2154.39 323.48 2149.4 314.536 2145.86 304.136C2142.32 293.528 2140.56 281.776 2140.56 268.88C2140.56 255.984 2142.32 244.336 2145.86 233.936C2149.4 223.328 2154.39 214.384 2160.84 207.104C2167.28 199.616 2175.08 193.896 2184.24 189.944C2193.6 185.992 2203.89 184.016 2215.12 184.016C2226.36 184.016 2236.55 185.992 2245.7 189.944C2255.06 193.896 2262.96 199.616 2269.41 207.104C2275.86 214.384 2280.85 223.328 2284.39 233.936C2287.92 244.336 2289.69 255.984 2289.69 268.88C2289.69 281.776 2287.92 293.528 2284.39 304.136C2280.85 314.536 2275.86 323.48 2269.41 330.968C2262.96 338.248 2255.06 343.864 2245.7 347.816C2236.55 351.768 2226.36 353.744 2215.12 353.744ZM2215.12 325.664C2226.77 325.664 2236.13 322.128 2243.2 315.056C2250.28 307.776 2253.81 296.96 2253.81 282.608V255.152C2253.81 240.8 2250.28 230.088 2243.2 223.016C2236.13 215.736 2226.77 212.096 2215.12 212.096C2203.48 212.096 2194.12 215.736 2187.04 223.016C2179.97 230.088 2176.44 240.8 2176.44 255.152V282.608C2176.44 296.96 2179.97 307.776 2187.04 315.056C2194.12 322.128 2203.48 325.664 2215.12 325.664ZM2344.75 158.744C2337.67 158.744 2332.47 157.08 2329.15 153.752C2326.03 150.424 2324.47 146.16 2324.47 140.96V135.656C2324.47 130.456 2326.03 126.192 2329.15 122.864C2332.47 119.536 2337.67 117.872 2344.75 117.872C2351.82 117.872 2356.91 119.536 2360.03 122.864C2363.15 126.192 2364.71 130.456 2364.71 135.656V140.96C2364.71 146.16 2363.15 150.424 2360.03 153.752C2356.91 157.08 2351.82 158.744 2344.75 158.744ZM2327.59 187.76H2361.59V350H2327.59V187.76ZM2444.79 350C2433.14 350 2424.4 347.088 2418.58 341.264C2412.96 335.232 2410.16 326.912 2410.16 316.304V119.12H2444.16V322.232H2466.63V350H2444.79ZM2562.77 353.744C2551.13 353.744 2540.73 351.768 2531.57 347.816C2522.42 343.864 2514.62 338.248 2508.17 330.968C2501.73 323.48 2496.73 314.536 2493.2 304.136C2489.87 293.528 2488.21 281.776 2488.21 268.88C2488.21 255.984 2489.87 244.336 2493.2 233.936C2496.73 223.328 2501.73 214.384 2508.17 207.104C2514.62 199.616 2522.42 193.896 2531.57 189.944C2540.73 185.992 2551.13 184.016 2562.77 184.016C2574.63 184.016 2585.03 186.096 2593.97 190.256C2603.13 194.416 2610.72 200.24 2616.75 207.728C2622.78 215.008 2627.25 223.536 2630.17 233.312C2633.29 243.088 2634.85 253.592 2634.85 264.824V277.616H2523.46V282.92C2523.46 295.4 2527.1 305.696 2534.38 313.808C2541.87 321.712 2552.48 325.664 2566.21 325.664C2576.19 325.664 2584.61 323.48 2591.48 319.112C2598.34 314.744 2604.17 308.816 2608.95 301.328L2628.92 320.984C2622.89 330.968 2614.15 338.976 2602.71 345.008C2591.27 350.832 2577.96 353.744 2562.77 353.744ZM2562.77 210.536C2556.95 210.536 2551.54 211.576 2546.55 213.656C2541.77 215.736 2537.61 218.648 2534.07 222.392C2530.74 226.136 2528.14 230.608 2526.27 235.808C2524.4 241.008 2523.46 246.728 2523.46 252.968V255.152H2598.97V252.032C2598.97 239.552 2595.74 229.568 2589.29 222.08C2582.85 214.384 2574.01 210.536 2562.77 210.536ZM2672.49 350V187.76H2706.5V218.96H2708.06C2710.35 210.64 2715.13 203.36 2722.41 197.12C2729.69 190.88 2739.78 187.76 2752.68 187.76H2761.72V220.52H2748.31C2734.79 220.52 2724.39 222.704 2717.11 227.072C2710.04 231.44 2706.5 237.888 2706.5 246.416V350H2672.49ZM2791.93 187.76H2825.94V214.592H2827.5C2831.03 204.816 2836.75 197.328 2844.66 192.128C2852.77 186.72 2862.23 184.016 2873.05 184.016C2893.64 184.016 2909.55 191.504 2920.79 206.48C2932.02 221.248 2937.63 242.048 2937.63 268.88C2937.63 295.712 2932.02 316.616 2920.79 331.592C2909.55 346.36 2893.64 353.744 2873.05 353.744C2862.23 353.744 2852.77 351.04 2844.66 345.632C2836.75 340.224 2831.03 332.736 2827.5 323.168H2825.94V412.4H2791.93V187.76ZM2862.75 324.416C2874.61 324.416 2884.07 320.672 2891.15 313.184C2898.22 305.488 2901.75 295.4 2901.75 282.92V254.84C2901.75 242.36 2898.22 232.376 2891.15 224.888C2884.07 217.192 2874.61 213.344 2862.75 213.344C2852.35 213.344 2843.62 215.944 2836.55 221.144C2829.47 226.136 2825.94 232.792 2825.94 241.112V296.648C2825.94 304.968 2829.47 311.728 2836.55 316.928C2843.62 321.92 2852.35 324.416 2862.75 324.416ZM3011.2 350C2999.55 350 2990.82 347.088 2984.99 341.264C2979.38 335.232 2976.57 326.912 2976.57 316.304V119.12H3010.58V322.232H3033.04V350H3011.2ZM3184.41 350C3175.47 350 3168.6 347.504 3163.82 342.512C3159.04 337.312 3156.12 330.76 3155.08 322.856H3153.52C3150.4 333.048 3144.68 340.744 3136.36 345.944C3128.04 351.144 3117.96 353.744 3106.1 353.744C3089.25 353.744 3076.25 349.376 3067.1 340.64C3058.16 331.904 3053.68 320.152 3053.68 305.384C3053.68 289.16 3059.51 276.992 3071.16 268.88C3083.01 260.768 3100.28 256.712 3122.95 256.712H3152.28V242.984C3152.28 233 3149.57 225.304 3144.16 219.896C3138.76 214.488 3130.33 211.784 3118.89 211.784C3109.32 211.784 3101.52 213.864 3095.49 218.024C3089.46 222.184 3084.36 227.488 3080.2 233.936L3059.92 215.528C3065.33 206.376 3072.92 198.888 3082.7 193.064C3092.48 187.032 3105.27 184.016 3121.08 184.016C3142.08 184.016 3158.2 188.904 3169.44 198.68C3180.67 208.456 3186.28 222.496 3186.28 240.8V322.232H3203.44V350H3184.41ZM3115.77 327.848C3126.38 327.848 3135.12 325.56 3141.98 320.984C3148.84 316.2 3152.28 309.856 3152.28 301.952V278.552H3123.57C3100.07 278.552 3088.32 285.832 3088.32 300.392V306.008C3088.32 313.288 3090.71 318.8 3095.49 322.544C3100.48 326.08 3107.24 327.848 3115.77 327.848ZM3280.79 350C3268.93 350 3259.99 346.984 3253.96 340.952C3247.92 334.712 3244.91 325.976 3244.91 314.744V215.528H3219.64V187.76H3233.36C3238.98 187.76 3242.83 186.512 3244.91 184.016C3247.2 181.52 3248.34 177.464 3248.34 171.848V143.456H3278.92V187.76H3312.92V215.528H3278.92V322.232H3310.43V350H3280.79ZM3412.24 353.744C3400.59 353.744 3390.19 351.768 3381.04 347.816C3371.89 343.864 3364.09 338.248 3357.64 330.968C3351.19 323.48 3346.2 314.536 3342.67 304.136C3339.34 293.528 3337.67 281.776 3337.67 268.88C3337.67 255.984 3339.34 244.336 3342.67 233.936C3346.2 223.328 3351.19 214.384 3357.64 207.104C3364.09 199.616 3371.89 193.896 3381.04 189.944C3390.19 185.992 3400.59 184.016 3412.24 184.016C3424.1 184.016 3434.5 186.096 3443.44 190.256C3452.59 194.416 3460.19 200.24 3466.22 207.728C3472.25 215.008 3476.72 223.536 3479.63 233.312C3482.75 243.088 3484.31 253.592 3484.31 264.824V277.616H3372.93V282.92C3372.93 295.4 3376.57 305.696 3383.85 313.808C3391.34 321.712 3401.95 325.664 3415.67 325.664C3425.66 325.664 3434.08 323.48 3440.95 319.112C3447.81 314.744 3453.63 308.816 3458.42 301.328L3478.39 320.984C3472.35 330.968 3463.62 338.976 3452.18 345.008C3440.74 350.832 3427.43 353.744 3412.24 353.744ZM3412.24 210.536C3406.42 210.536 3401.01 211.576 3396.02 213.656C3391.23 215.736 3387.07 218.648 3383.54 222.392C3380.21 226.136 3377.61 230.608 3375.74 235.808C3373.87 241.008 3372.93 246.728 3372.93 252.968V255.152H3448.43V252.032C3448.43 239.552 3445.21 229.568 3438.76 222.08C3432.31 214.384 3423.47 210.536 3412.24 210.536Z" fill="#161616"/>
<path d="M256 512C397.385 512 512 397.385 512 256C512 114.615 397.385 0 256 0C114.615 0 0 114.615 0 256C0 397.385 114.615 512 256 512Z" fill="url(#paint0_linear_1_2)"/>
<path fill-rule="evenodd" clip-rule="evenodd" d="M173.564 251.412C167.172 235.824 162.004 220.608 158.126 206.166C150.625 207.797 143.579 209.662 137.061 211.738C121.481 216.697 109.326 222.718 101.121 229.263C92.9086 235.811 89.3736 242.255 89.08 248.205C88.8296 253.275 90.8681 258.882 96.124 264.969C101.417 271.099 109.637 277.286 120.66 283.132C124.533 285.186 125.989 289.955 123.912 293.786C121.835 297.615 117.011 299.054 113.138 297C101.065 290.598 91.0247 283.301 84.0194 275.187C76.9768 267.032 72.6792 257.64 73.1827 247.437C73.7768 235.405 80.8739 225.19 91.1285 217.013C101.391 208.828 115.537 202.055 132.184 196.758C139.118 194.551 146.558 192.578 154.436 190.855C152.848 183.393 151.643 176.197 150.828 169.333C148.793 152.159 149.151 136.623 152.421 123.994C155.686 111.375 162.139 100.75 172.963 95.2201C182.513 90.3406 193.404 90.5035 204.257 93.8174C215.066 97.1176 226.428 103.694 237.804 112.618C241.247 115.319 241.825 120.268 239.093 123.673C236.361 127.077 231.355 127.647 227.911 124.946C217.454 116.742 207.843 111.382 199.561 108.854C191.323 106.338 185.009 106.779 180.268 109.201C174.916 111.935 170.456 117.791 167.839 127.896C165.224 137.993 164.731 151.428 166.636 167.499C167.402 173.956 168.547 180.765 170.064 187.869C185.163 185.373 201.527 183.733 218.748 183.064C238.72 158.049 259.69 137.49 279.462 123.095C293.546 112.844 307.376 105.46 320.091 102.016C332.798 98.5754 345.329 98.8579 355.547 105.419C364.641 111.258 369.9 120.804 372.336 131.889C374.76 142.93 374.546 156.103 372.246 170.463C371.557 174.755 367.481 177.684 363.14 177.004C358.799 176.324 355.838 172.293 356.526 168C358.643 154.781 358.645 143.715 356.782 135.229C354.926 126.785 351.391 121.514 346.878 118.617C341.826 115.372 334.471 114.439 324.295 117.194C314.13 119.947 302.08 126.173 288.9 135.768C273.095 147.271 256.176 163.248 239.559 182.733C246.151 182.775 252.84 182.958 259.602 183.283C308.595 185.648 352.94 195.187 385.088 208.964C401.134 215.839 414.546 223.941 423.952 233.075C433.353 242.202 439.411 253.051 438.817 265.083C438.32 275.154 433.242 283.994 425.593 291.376C417.988 298.715 407.504 304.973 395.127 310.166C391.082 311.863 386.41 309.996 384.693 305.995C382.976 301.994 384.865 297.375 388.912 295.678C400.187 290.948 408.755 285.634 414.477 280.113C420.153 274.635 422.672 269.325 422.919 264.316C423.214 258.366 420.33 251.613 412.802 244.304C405.281 237.001 393.777 229.837 378.759 223.402C348.78 210.556 306.412 201.298 258.827 199.002C247.857 198.471 237.129 198.338 226.73 198.565C220.089 207.186 213.559 216.344 207.232 225.973C201.441 234.792 196.085 243.604 191.183 252.325C195.434 262.192 200.201 272.225 205.473 282.315C227.343 324.164 253.451 358.431 277.718 380.063C289.874 390.899 301.243 398.272 311.084 402.006C320.934 405.742 328.346 405.531 333.698 402.798C338.854 400.163 343.175 394.644 345.83 385.203C348.489 375.749 349.213 363.162 347.716 348.028C344.724 317.815 333.052 279.152 313.229 239.003C311.302 235.098 312.94 230.387 316.89 228.48C320.839 226.575 325.605 228.195 327.532 232.099C347.946 273.446 360.333 313.944 363.555 346.496C365.164 362.746 364.533 377.443 361.165 389.418C357.795 401.404 351.422 411.456 341.005 416.779C330.18 422.309 317.683 421.365 305.382 416.698C293.074 412.028 280.049 403.328 267.061 391.749C241.039 368.552 213.85 332.626 191.333 289.54C187.939 283.045 184.741 276.557 181.742 270.106C169.796 294.014 161.467 316.745 157.104 336.428C153.6 352.236 152.75 365.654 154.341 375.956C155.933 386.267 159.786 392.53 164.84 395.774C169.593 398.826 176.358 399.832 185.626 397.652C194.915 395.467 205.945 390.226 218.112 381.939C221.733 379.474 226.688 380.378 229.18 383.956C231.675 387.536 230.76 392.435 227.142 394.9C214.029 403.829 201.174 410.17 189.308 412.963C177.421 415.759 165.767 415.133 156.171 408.973C145.953 402.412 140.596 391.208 138.607 378.331C136.616 365.445 137.813 349.95 141.557 333.06C146.964 308.668 157.883 280.483 173.564 251.412ZM183.675 233.66C179.76 223.181 176.466 212.983 173.802 203.209C184.006 201.56 194.864 200.307 206.239 199.504C202.046 205.286 197.921 211.259 193.885 217.403C190.327 222.819 186.922 228.244 183.675 233.66Z" fill="white"/>
<path d="M256.733 278.265C269.29 278.265 279.47 268.2 279.47 255.784C279.47 243.368 269.29 233.304 256.733 233.304C244.175 233.304 233.995 243.368 233.995 255.784C233.995 268.2 244.175 278.265 256.733 278.265Z" fill="white"/>
</g>
<defs>
<linearGradient id="paint0_linear_1_2" x1="256" y1="0" x2="256" y2="512" gradientUnits="userSpaceOnUse">
<stop stop-color="#339AF0"/>
<stop offset="1" stop-color="#58C4DC"/>
</linearGradient>
<clipPath id="clip0_1_2">
<rect width="3498" height="512" fill="white"/>
</clipPath>
</defs>
</svg>
