<svg width="1336" height="512" viewBox="0 0 1336 512" fill="none" xmlns="http://www.w3.org/2000/svg">
<path d="M759.864 187.76H792.624L724.296 382.136C722.424 387.544 720.24 392.12 717.744 395.864C715.456 399.816 712.648 402.936 709.32 405.224C706.2 407.72 702.352 409.488 697.776 410.528C693.2 411.776 687.792 412.4 681.552 412.4H661.896V384.632H689.352L698.712 357.176L639.744 187.76H673.752L706.2 283.232L715.56 318.488H717.12L727.416 283.232L759.864 187.76ZM870.254 353.744C854.862 353.744 841.966 351.04 831.566 345.632C821.166 340.224 812.118 332.736 804.422 323.168L826.262 303.2C832.294 310.48 838.95 316.2 846.23 320.36C853.718 324.312 862.35 326.288 872.126 326.288C882.11 326.288 889.494 324.416 894.278 320.672C899.27 316.72 901.766 311.312 901.766 304.448C901.766 299.248 899.998 294.88 896.462 291.344C893.134 287.6 887.206 285.208 878.678 284.168L863.702 282.296C847.062 280.216 833.958 275.432 824.39 267.944C815.03 260.248 810.35 248.912 810.35 233.936C810.35 226.032 811.806 219.064 814.718 213.032C817.63 206.792 821.686 201.592 826.886 197.432C832.294 193.064 838.638 189.736 845.918 187.448C853.406 185.16 861.622 184.016 870.566 184.016C885.126 184.016 896.982 186.304 906.134 190.88C915.494 195.456 923.814 201.8 931.094 209.912L910.19 229.88C906.03 224.888 900.518 220.624 893.654 217.088C886.998 213.344 879.302 211.472 870.566 211.472C861.206 211.472 854.238 213.344 849.662 217.088C845.294 220.832 843.11 225.72 843.11 231.752C843.11 237.992 845.086 242.672 849.038 245.792C852.99 248.912 859.334 251.2 868.07 252.656L883.046 254.528C900.934 257.232 913.934 262.536 922.046 270.44C930.366 278.136 934.526 288.536 934.526 301.64C934.526 309.544 932.966 316.72 929.846 323.168C926.934 329.408 922.67 334.816 917.054 339.392C911.438 343.968 904.678 347.504 896.774 350C888.87 352.496 880.03 353.744 870.254 353.744ZM966.125 272.312V237.68H1052.55V272.312H966.125ZM1194.62 323.168H1193.38C1191.92 327.12 1189.94 330.968 1187.45 334.712C1185.16 338.456 1182.14 341.784 1178.4 344.696C1174.86 347.4 1170.5 349.584 1165.3 351.248C1160.3 352.912 1154.48 353.744 1147.82 353.744C1130.98 353.744 1117.87 348.336 1108.51 337.52C1099.36 326.704 1094.78 311.208 1094.78 291.032V187.76H1128.79V286.664C1128.79 311.832 1139.19 324.416 1159.99 324.416C1164.36 324.416 1168.62 323.896 1172.78 322.856C1176.94 321.608 1180.58 319.84 1183.7 317.552C1187.03 315.264 1189.63 312.352 1191.5 308.816C1193.58 305.28 1194.62 301.12 1194.62 296.336V187.76H1228.63V350H1194.62V323.168ZM1294.49 158.744C1287.42 158.744 1282.22 157.08 1278.89 153.752C1275.77 150.424 1274.21 146.16 1274.21 140.96V135.656C1274.21 130.456 1275.77 126.192 1278.89 122.864C1282.22 119.536 1287.42 117.872 1294.49 117.872C1301.56 117.872 1306.66 119.536 1309.78 122.864C1312.9 126.192 1314.46 130.456 1314.46 135.656V140.96C1314.46 146.16 1312.9 150.424 1309.78 153.752C1306.66 157.08 1301.56 158.744 1294.49 158.744ZM1277.33 187.76H1311.34V350H1277.33V187.76Z" fill="#161616"/>
<path d="M256 512C397.385 512 512 397.385 512 256C512 114.615 397.385 0 256 0C114.615 0 0 114.615 0 256C0 397.385 114.615 512 256 512Z" fill="url(#paint0_linear_2001_2)"/>
<path fill-rule="evenodd" clip-rule="evenodd" d="M173.564 251.412C167.172 235.824 162.004 220.608 158.126 206.166C150.625 207.797 143.579 209.662 137.061 211.738C121.481 216.697 109.326 222.718 101.121 229.263C92.9086 235.811 89.3736 242.255 89.08 248.205C88.8296 253.275 90.8681 258.882 96.124 264.969C101.417 271.099 109.637 277.286 120.66 283.132C124.533 285.186 125.989 289.955 123.912 293.786C121.835 297.615 117.011 299.054 113.138 297C101.065 290.598 91.0247 283.301 84.0194 275.187C76.9768 267.032 72.6792 257.64 73.1827 247.437C73.7768 235.405 80.8739 225.19 91.1285 217.013C101.391 208.828 115.537 202.055 132.184 196.758C139.118 194.551 146.558 192.578 154.436 190.855C152.848 183.393 151.643 176.197 150.828 169.333C148.793 152.159 149.151 136.623 152.421 123.994C155.686 111.375 162.139 100.75 172.963 95.2201C182.513 90.3406 193.404 90.5035 204.257 93.8174C215.066 97.1176 226.428 103.694 237.804 112.618C241.247 115.319 241.825 120.268 239.093 123.673C236.361 127.077 231.355 127.647 227.911 124.946C217.454 116.742 207.843 111.382 199.561 108.854C191.323 106.338 185.009 106.779 180.268 109.201C174.916 111.935 170.456 117.791 167.839 127.896C165.224 137.993 164.731 151.428 166.636 167.499C167.402 173.956 168.547 180.765 170.064 187.869C185.163 185.373 201.527 183.733 218.748 183.064C238.72 158.049 259.69 137.49 279.462 123.095C293.546 112.844 307.376 105.46 320.091 102.016C332.798 98.5754 345.329 98.8579 355.547 105.419C364.641 111.258 369.9 120.804 372.336 131.889C374.76 142.93 374.546 156.103 372.246 170.463C371.557 174.755 367.481 177.684 363.14 177.004C358.799 176.324 355.838 172.293 356.526 168C358.643 154.781 358.645 143.715 356.782 135.229C354.926 126.785 351.391 121.514 346.878 118.617C341.826 115.372 334.471 114.439 324.295 117.194C314.13 119.947 302.08 126.173 288.9 135.768C273.095 147.271 256.176 163.248 239.559 182.733C246.151 182.775 252.84 182.958 259.602 183.283C308.595 185.648 352.94 195.187 385.088 208.964C401.134 215.839 414.546 223.941 423.952 233.075C433.353 242.202 439.411 253.051 438.817 265.083C438.32 275.154 433.242 283.994 425.593 291.376C417.988 298.715 407.504 304.973 395.127 310.166C391.082 311.863 386.41 309.996 384.693 305.995C382.976 301.994 384.865 297.375 388.912 295.678C400.187 290.948 408.755 285.634 414.477 280.113C420.153 274.635 422.672 269.325 422.919 264.316C423.214 258.366 420.33 251.613 412.802 244.304C405.281 237.001 393.777 229.837 378.759 223.402C348.78 210.556 306.412 201.298 258.827 199.002C247.857 198.471 237.129 198.338 226.73 198.565C220.089 207.186 213.559 216.344 207.232 225.973C201.441 234.792 196.085 243.604 191.183 252.325C195.434 262.192 200.201 272.225 205.473 282.315C227.343 324.164 253.451 358.431 277.718 380.063C289.874 390.899 301.243 398.272 311.084 402.006C320.934 405.742 328.346 405.531 333.698 402.798C338.854 400.163 343.175 394.644 345.83 385.203C348.489 375.749 349.213 363.162 347.716 348.028C344.724 317.815 333.052 279.152 313.229 239.003C311.302 235.098 312.94 230.387 316.89 228.48C320.839 226.575 325.605 228.195 327.532 232.099C347.946 273.446 360.333 313.944 363.555 346.496C365.164 362.746 364.533 377.443 361.165 389.418C357.795 401.404 351.422 411.456 341.005 416.779C330.18 422.309 317.683 421.365 305.382 416.698C293.074 412.028 280.049 403.328 267.061 391.749C241.039 368.552 213.85 332.626 191.333 289.54C187.939 283.045 184.741 276.557 181.742 270.106C169.796 294.014 161.467 316.745 157.104 336.428C153.6 352.236 152.75 365.654 154.341 375.956C155.933 386.267 159.786 392.53 164.84 395.774C169.593 398.826 176.358 399.832 185.626 397.652C194.915 395.467 205.945 390.226 218.112 381.939C221.733 379.474 226.688 380.378 229.18 383.956C231.675 387.536 230.76 392.435 227.142 394.9C214.029 403.829 201.174 410.171 189.308 412.963C177.421 415.759 165.767 415.133 156.171 408.973C145.953 402.412 140.596 391.208 138.607 378.331C136.616 365.445 137.813 349.95 141.557 333.06C146.964 308.668 157.883 280.483 173.564 251.412ZM183.675 233.66C179.76 223.181 176.466 212.983 173.802 203.209C184.006 201.56 194.864 200.307 206.239 199.504C202.046 205.286 197.921 211.259 193.885 217.403C190.327 222.819 186.922 228.244 183.675 233.66Z" fill="white"/>
<path d="M256.733 278.265C269.29 278.265 279.47 268.2 279.47 255.784C279.47 243.368 269.29 233.304 256.733 233.304C244.175 233.304 233.995 243.368 233.995 255.784C233.995 268.2 244.175 278.265 256.733 278.265Z" fill="white"/>
<defs>
<linearGradient id="paint0_linear_2001_2" x1="256" y1="0" x2="256" y2="512" gradientUnits="userSpaceOnUse">
<stop stop-color="#339AF0"/>
<stop offset="1" stop-color="#58C4DC"/>
</linearGradient>
</defs>
</svg>
